<svg id="Layer_1" enable-background="new 0 0 512 512" height="512" viewBox="0 0 512 512" width="512" xmlns="http://www.w3.org/2000/svg"><g><path d="m462.229 346.905c-6.197-2.929-13.38-3.093-19.705-.451-.286.12-.566.247-.842.382-44.39 18.044-93.17 17.885-137.477-.474-44.635-18.496-79.389-53.251-97.859-97.861-19.317-46.656-18.151-99.663 3.163-145.351 2.767-5.844 3.09-12.414.909-18.5-2.18-6.086-6.602-10.959-12.445-13.72-6.197-2.93-13.381-3.097-19.622-.488-56.715 23.275-100.962 67.22-124.592 123.741s-23.813 118.851-.516 175.509 67.286 100.862 123.863 124.468c28.5 11.893 58.474 17.84 88.456 17.84 29.538 0 59.083-5.774 87.229-17.324 53.634-22.009 96.605-63.065 121.006-115.606 5.668-12.05.488-26.469-11.568-32.165z"/><path d="m461.098 64.273h-24.8l35.868-39.174c4.013-4.382 5.056-10.72 2.658-16.155-2.396-5.436-7.781-8.944-13.726-8.944h-58.85c-8.284 0-15 6.709-15 14.985s6.716 14.985 15 14.985h24.8l-35.868 39.174c-4.013 4.382-5.056 10.72-2.658 16.155 2.396 5.436 7.781 8.944 13.727 8.944h58.85c8.284 0 15-6.709 15-14.985s-6.717-14.985-15.001-14.985z"/><path d="m277.685 111.546c2.396 5.436 7.781 8.944 13.727 8.944h47.036c8.284 0 15-6.709 15-14.985s-6.716-14.985-15-14.985h-12.986l24.055-26.272c4.013-4.382 5.056-10.72 2.658-16.155-2.396-5.436-7.781-8.944-13.727-8.944h-47.036c-8.284 0-15 6.709-15 14.985s6.716 14.985 15 14.985h12.986l-24.055 26.272c-4.013 4.382-5.056 10.72-2.658 16.155z"/><path d="m374.685 199.713c2.396 5.436 7.781 8.944 13.727 8.944h47.036c8.284 0 15-6.709 15-14.985s-6.716-14.985-15-14.985h-12.986l24.055-26.272c4.013-4.382 5.056-10.72 2.658-16.155-2.396-5.436-7.781-8.944-13.727-8.944h-47.036c-8.284 0-15 6.709-15 14.985s6.716 14.985 15 14.985h12.986l-24.055 26.272c-4.013 4.382-5.056 10.72-2.658 16.155z"/></g></svg>